<svg width="26" height="26" viewBox="0 0 26 26" fill="none" xmlns="http://www.w3.org/2000/svg">
<path d="M13 25.1875C10.5895 25.1875 8.23322 24.4727 6.22899 23.1335C4.22477 21.7944 2.66267 19.8909 1.74022 17.664C0.817781 15.437 0.576427 12.9865 1.04668 10.6223C1.51694 8.25819 2.67769 6.08659 4.38214 4.38213C6.08659 2.67768 8.2582 1.51693 10.6223 1.04668C12.9865 0.57642 15.437 0.817773 17.664 1.74022C19.8909 2.66266 21.7944 4.22476 23.1335 6.22899C24.4727 8.23321 25.1875 10.5895 25.1875 13C25.1875 16.2323 23.9035 19.3323 21.6179 21.6179C19.3323 23.9035 16.2323 25.1875 13 25.1875ZM13 2.4375C10.9109 2.4375 8.86879 3.05698 7.13179 4.2176C5.3948 5.37822 4.04098 7.02786 3.24153 8.9579C2.44208 10.8879 2.2329 13.0117 2.64046 15.0606C3.04802 17.1096 4.054 18.9916 5.53119 20.4688C7.00838 21.946 8.89044 22.952 10.9394 23.3595C12.9883 23.7671 15.1121 23.5579 17.0421 22.7585C18.9721 21.959 20.6218 20.6052 21.7824 18.8682C22.943 17.1312 23.5625 15.0891 23.5625 13C23.5625 10.1986 22.4497 7.51204 20.4688 5.53118C18.488 3.55033 15.8014 2.4375 13 2.4375Z" fill="#DBDDE9"/>
<path d="M11.1069 17.875C10.9955 17.8746 10.8853 17.8514 10.7833 17.8066C10.6813 17.7619 10.5895 17.6967 10.5137 17.615L6.71937 13.5525C6.58972 13.3926 6.52559 13.1895 6.53994 12.9841C6.55429 12.7788 6.64604 12.5865 6.79666 12.4462C6.94728 12.3059 7.14555 12.228 7.35139 12.2283C7.55724 12.2285 7.75532 12.3068 7.90562 12.4475L11.1069 15.8681L18.0944 8.385C18.1645 8.29848 18.2517 8.22731 18.3506 8.17591C18.4494 8.12451 18.5577 8.09398 18.6688 8.08622C18.78 8.07845 18.8915 8.09362 18.9965 8.13078C19.1015 8.16794 19.1978 8.22629 19.2793 8.30222C19.3608 8.37814 19.4258 8.47001 19.4703 8.57213C19.5148 8.67425 19.5378 8.78442 19.538 8.89581C19.5381 9.0072 19.5153 9.11743 19.471 9.21965C19.4268 9.32187 19.362 9.41389 19.2806 9.49L11.7 17.615C11.6242 17.6967 11.5325 17.7619 11.4305 17.8066C11.3284 17.8514 11.2183 17.8746 11.1069 17.875Z" fill="#DBDDE9"/>
</svg>
